# xmcd
#
# Track frame offsets:
#	150
#	1610
#	23906
#	42279
#	43321
#	58623
#	79194
#	99764
#	119073
#	133536
#	150120
#	166949
#	180090
#	181911
#
# Disc length: 2642 seconds
#
# Revision: 2
# Processed by: cddbd v1.5.2PL0 Copyright (c) Steve Scherf et al.
# Submitted via: audiograbber 1.83.01
#
DISCID=9b0a500e
DTITLE=Freedom And Whiskey - The Road
DYEAR=1900
DGENRE=Southern Rock
TTITLE0=Delusion
TTITLE1=In Your Dreams
TTITLE2=The Road
TTITLE3=The Mourning Before
TTITLE4=Austin
TTITLE5=Mystify
TTITLE6=Hollywood
TTITLE7=End Of My Rope
TTITLE8=One Of Those Days
TTITLE9=Rearrange
TTITLE10=Nothing At All
TTITLE11=Shine
TTITLE12=The Epinphany
TTITLE13=Whiskey And Water
EXTD=
EXTT0=
EXTT1=
EXTT2=
EXTT3=
EXTT4=
EXTT5=
EXTT6=
EXTT7=
EXTT8=
EXTT9=
EXTT10=
EXTT11=
EXTT12=
EXTT13=
PLAYORDER=
